<?xml version="1.0" encoding="UTF-8" standalone="no"?>
<!DOCTYPE svg PUBLIC "-//W3C//DTD SVG 1.1//EN"
 "http://www.w3.org/Graphics/SVG/1.1/DTD/svg11.dtd">
<!-- Generated by graphviz version 2.43.0 (0)
 -->
<!-- Title: %3 Pages: 1 -->
<svg width="1958pt" height="1509pt"
 viewBox="0.00 0.00 1958.00 1509.00" xmlns="http://www.w3.org/2000/svg" xmlns:xlink="http://www.w3.org/1999/xlink">
<g id="graph0" class="graph" transform="scale(1 1) rotate(0) translate(4 1505)">
<title>%3</title>
<polygon fill="white" stroke="transparent" points="-4,4 -4,-1505 1954,-1505 1954,4 -4,4"/>
<!-- OA -->
<g id="node1" class="node">
<title>OA</title>
<ellipse fill="none" stroke="black" cx="754.54" cy="-399.71" rx="27" ry="18"/>
<text text-anchor="middle" x="754.54" y="-396.01" font-family="Times,serif" font-size="14.00">OA</text>
</g>
<!-- VP -->
<g id="node2" class="node">
<title>VP</title>
<ellipse fill="none" stroke="black" cx="595.77" cy="-310.44" rx="27" ry="18"/>
<text text-anchor="middle" x="595.77" y="-306.74" font-family="Times,serif" font-size="14.00">VP</text>
</g>
<!-- OA&#45;&#45;VP -->
<g id="edge1" class="edge">
<title>OA&#45;&#45;VP</title>
<path fill="none" stroke="black" d="M733.78,-388.04C703.35,-370.93 646.96,-339.22 616.53,-322.11"/>
</g>
<!-- VM -->
<g id="node3" class="node">
<title>VM</title>
<ellipse fill="none" stroke="black" cx="910.9" cy="-509.39" rx="27" ry="18"/>
<text text-anchor="middle" x="910.9" y="-505.69" font-family="Times,serif" font-size="14.00">VM</text>
</g>
<!-- OA&#45;&#45;VM -->
<g id="edge2" class="edge">
<title>OA&#45;&#45;VM</title>
<path fill="none" stroke="black" d="M773.4,-412.94C803.45,-434.02 861.88,-475 891.98,-496.11"/>
</g>
<!-- XM -->
<g id="node43" class="node">
<title>XM</title>
<ellipse fill="none" stroke="black" cx="459.85" cy="-375.85" rx="27" ry="18"/>
<text text-anchor="middle" x="459.85" y="-372.15" font-family="Times,serif" font-size="14.00">XM</text>
</g>
<!-- VP&#45;&#45;XM -->
<g id="edge42" class="edge">
<title>VP&#45;&#45;XM</title>
<path fill="none" stroke="black" d="M573.63,-321.09C548.35,-333.26 507.25,-353.04 481.98,-365.2"/>
</g>
<!-- WT -->
<g id="node44" class="node">
<title>WT</title>
<ellipse fill="none" stroke="black" cx="535.85" cy="-169.12" rx="27" ry="18"/>
<text text-anchor="middle" x="535.85" y="-165.42" font-family="Times,serif" font-size="14.00">WT</text>
</g>
<!-- VP&#45;&#45;WT -->
<g id="edge43" class="edge">
<title>VP&#45;&#45;WT</title>
<path fill="none" stroke="black" d="M588.42,-293.11C576.92,-265.99 554.8,-213.8 543.26,-186.59"/>
</g>
<!-- BG -->
<g id="node45" class="node">
<title>BG</title>
<ellipse fill="none" stroke="black" cx="466.03" cy="-210.23" rx="27" ry="18"/>
<text text-anchor="middle" x="466.03" y="-206.53" font-family="Times,serif" font-size="14.00">BG</text>
</g>
<!-- VP&#45;&#45;BG -->
<g id="edge44" class="edge">
<title>VP&#45;&#45;BG</title>
<path fill="none" stroke="black" d="M578,-296.71C553.3,-277.63 508.81,-243.28 484,-224.11"/>
</g>
<!-- OY -->
<g id="node10" class="node">
<title>OY</title>
<ellipse fill="none" stroke="black" cx="1041.51" cy="-556.19" rx="27" ry="18"/>
<text text-anchor="middle" x="1041.51" y="-552.49" font-family="Times,serif" font-size="14.00">OY</text>
</g>
<!-- VM&#45;&#45;OY -->
<g id="edge30" class="edge">
<title>VM&#45;&#45;OY</title>
<path fill="none" stroke="black" d="M934.86,-517.98C958.42,-526.42 994.19,-539.24 1017.71,-547.66"/>
</g>
<!-- LY -->
<g id="node14" class="node">
<title>LY</title>
<ellipse fill="none" stroke="black" cx="1026.65" cy="-433.83" rx="27" ry="18"/>
<text text-anchor="middle" x="1026.65" y="-430.13" font-family="Times,serif" font-size="14.00">LY</text>
</g>
<!-- VM&#45;&#45;LY -->
<g id="edge29" class="edge">
<title>VM&#45;&#45;LY</title>
<path fill="none" stroke="black" d="M930.28,-496.75C951.64,-482.8 985.82,-460.48 1007.22,-446.52"/>
</g>
<!-- AE -->
<g id="node35" class="node">
<title>AE</title>
<ellipse fill="none" stroke="black" cx="914.68" cy="-656.02" rx="27" ry="18"/>
<text text-anchor="middle" x="914.68" y="-652.32" font-family="Times,serif" font-size="14.00">AE</text>
</g>
<!-- VM&#45;&#45;AE -->
<g id="edge31" class="edge">
<title>VM&#45;&#45;AE</title>
<path fill="none" stroke="black" d="M911.38,-527.67C912.1,-555.92 913.49,-609.86 914.22,-637.97"/>
</g>
<!-- GA -->
<g id="node4" class="node">
<title>GA</title>
<ellipse fill="none" stroke="black" cx="26.87" cy="-78.4" rx="27" ry="18"/>
<text text-anchor="middle" x="26.87" y="-74.7" font-family="Times,serif" font-size="14.00">GA</text>
</g>
<!-- KV -->
<g id="node5" class="node">
<title>KV</title>
<ellipse fill="none" stroke="black" cx="156.73" cy="-121.09" rx="27" ry="18"/>
<text text-anchor="middle" x="156.73" y="-117.39" font-family="Times,serif" font-size="14.00">KV</text>
</g>
<!-- GA&#45;&#45;KV -->
<g id="edge3" class="edge">
<title>GA&#45;&#45;KV</title>
<path fill="none" stroke="black" d="M51.29,-86.43C74.51,-94.06 109.23,-105.48 132.41,-113.1"/>
</g>
<!-- XQ -->
<g id="node8" class="node">
<title>XQ</title>
<ellipse fill="none" stroke="black" cx="283.63" cy="-164.93" rx="27" ry="18"/>
<text text-anchor="middle" x="283.63" y="-161.23" font-family="Times,serif" font-size="14.00">XQ</text>
</g>
<!-- KV&#45;&#45;XQ -->
<g id="edge21" class="edge">
<title>KV&#45;&#45;XQ</title>
<path fill="none" stroke="black" d="M180.9,-129.44C203.48,-137.24 237,-148.82 259.55,-156.61"/>
</g>
<!-- WD -->
<g id="node6" class="node">
<title>WD</title>
<ellipse fill="none" stroke="black" cx="444.06" cy="-139.82" rx="27.1" ry="18"/>
<text text-anchor="middle" x="444.06" y="-136.12" font-family="Times,serif" font-size="14.00">WD</text>
</g>
<!-- SH -->
<g id="node7" class="node">
<title>SH</title>
<ellipse fill="none" stroke="black" cx="610.5" cy="-187.2" rx="27" ry="18"/>
<text text-anchor="middle" x="610.5" y="-183.5" font-family="Times,serif" font-size="14.00">SH</text>
</g>
<!-- WD&#45;&#45;SH -->
<g id="edge4" class="edge">
<title>WD&#45;&#45;SH</title>
<path fill="none" stroke="black" d="M469.34,-147.02C500.81,-155.97 554.21,-171.17 585.53,-180.09"/>
</g>
<!-- WD&#45;&#45;XQ -->
<g id="edge5" class="edge">
<title>WD&#45;&#45;XQ</title>
<path fill="none" stroke="black" d="M417.21,-144.02C387.42,-148.69 339.65,-156.16 310.03,-160.8"/>
</g>
<!-- GK -->
<g id="node34" class="node">
<title>GK</title>
<ellipse fill="none" stroke="black" cx="368.57" cy="-121.83" rx="27" ry="18"/>
<text text-anchor="middle" x="368.57" y="-118.13" font-family="Times,serif" font-size="14.00">GK</text>
</g>
<!-- XQ&#45;&#45;GK -->
<g id="edge28" class="edge">
<title>XQ&#45;&#45;GK</title>
<path fill="none" stroke="black" d="M305.5,-153.83C318.28,-147.35 334.35,-139.19 347.07,-132.74"/>
</g>
<!-- TE -->
<g id="node9" class="node">
<title>TE</title>
<ellipse fill="none" stroke="black" cx="1175.07" cy="-606.01" rx="27" ry="18"/>
<text text-anchor="middle" x="1175.07" y="-602.31" font-family="Times,serif" font-size="14.00">TE</text>
</g>
<!-- TE&#45;&#45;OY -->
<g id="edge6" class="edge">
<title>TE&#45;&#45;OY</title>
<path fill="none" stroke="black" d="M1151.5,-597.22C1127.23,-588.17 1089.63,-574.15 1065.29,-565.07"/>
</g>
<!-- DO -->
<g id="node11" class="node">
<title>DO</title>
<ellipse fill="none" stroke="black" cx="1226.75" cy="-708.18" rx="27" ry="18"/>
<text text-anchor="middle" x="1226.75" y="-704.48" font-family="Times,serif" font-size="14.00">DO</text>
</g>
<!-- TE&#45;&#45;DO -->
<g id="edge7" class="edge">
<title>TE&#45;&#45;DO</title>
<path fill="none" stroke="black" d="M1183.84,-623.34C1193.4,-642.24 1208.61,-672.3 1218.12,-691.1"/>
</g>
<!-- XU -->
<g id="node47" class="node">
<title>XU</title>
<ellipse fill="none" stroke="black" cx="1385.13" cy="-724.02" rx="27" ry="18"/>
<text text-anchor="middle" x="1385.13" y="-720.32" font-family="Times,serif" font-size="14.00">XU</text>
</g>
<!-- DO&#45;&#45;XU -->
<g id="edge66" class="edge">
<title>DO&#45;&#45;XU</title>
<path fill="none" stroke="black" d="M1253.62,-710.87C1282.83,-713.79 1329.23,-718.43 1358.39,-721.34"/>
</g>
<!-- ZF -->
<g id="node54" class="node">
<title>ZF</title>
<ellipse fill="none" stroke="black" cx="1295.75" cy="-850.85" rx="27" ry="18"/>
<text text-anchor="middle" x="1295.75" y="-847.15" font-family="Times,serif" font-size="14.00">ZF</text>
</g>
<!-- DO&#45;&#45;ZF -->
<g id="edge67" class="edge">
<title>DO&#45;&#45;ZF</title>
<path fill="none" stroke="black" d="M1235.08,-725.39C1248.34,-752.81 1274.11,-806.12 1287.39,-833.58"/>
</g>
<!-- JR -->
<g id="node12" class="node">
<title>JR</title>
<ellipse fill="none" stroke="black" cx="1159.26" cy="-363.13" rx="27" ry="18"/>
<text text-anchor="middle" x="1159.26" y="-359.43" font-family="Times,serif" font-size="14.00">JR</text>
</g>
<!-- TR -->
<g id="node13" class="node">
<title>TR</title>
<ellipse fill="none" stroke="black" cx="1262.87" cy="-306.11" rx="27" ry="18"/>
<text text-anchor="middle" x="1262.87" y="-302.41" font-family="Times,serif" font-size="14.00">TR</text>
</g>
<!-- JR&#45;&#45;TR -->
<g id="edge8" class="edge">
<title>JR&#45;&#45;TR</title>
<path fill="none" stroke="black" d="M1180.23,-351.59C1198.2,-341.7 1223.97,-327.52 1241.94,-317.63"/>
</g>
<!-- JR&#45;&#45;LY -->
<g id="edge9" class="edge">
<title>JR&#45;&#45;LY</title>
<path fill="none" stroke="black" d="M1137.95,-374.49C1113.21,-387.68 1072.63,-409.32 1047.9,-422.5"/>
</g>
<!-- JQ -->
<g id="node15" class="node">
<title>JQ</title>
<ellipse fill="none" stroke="black" cx="1374.31" cy="-1251.84" rx="27" ry="18"/>
<text text-anchor="middle" x="1374.31" y="-1248.14" font-family="Times,serif" font-size="14.00">JQ</text>
</g>
<!-- TD -->
<g id="node16" class="node">
<title>TD</title>
<ellipse fill="none" stroke="black" cx="1440.84" cy="-1381.77" rx="27" ry="18"/>
<text text-anchor="middle" x="1440.84" y="-1378.07" font-family="Times,serif" font-size="14.00">TD</text>
</g>
<!-- JQ&#45;&#45;TD -->
<g id="edge10" class="edge">
<title>JQ&#45;&#45;TD</title>
<path fill="none" stroke="black" d="M1383.14,-1269.1C1395.87,-1293.95 1419.22,-1339.56 1431.97,-1364.44"/>
</g>
<!-- DZ -->
<g id="node17" class="node">
<title>DZ</title>
<ellipse fill="none" stroke="black" cx="1314.03" cy="-1135.46" rx="27" ry="18"/>
<text text-anchor="middle" x="1314.03" y="-1131.76" font-family="Times,serif" font-size="14.00">DZ</text>
</g>
<!-- JQ&#45;&#45;DZ -->
<g id="edge11" class="edge">
<title>JQ&#45;&#45;DZ</title>
<path fill="none" stroke="black" d="M1365.41,-1234.67C1354.02,-1212.67 1334.37,-1174.74 1322.96,-1152.7"/>
</g>
<!-- HS -->
<g id="node57" class="node">
<title>HS</title>
<ellipse fill="none" stroke="black" cx="1179.17" cy="-1138.1" rx="27" ry="18"/>
<text text-anchor="middle" x="1179.17" y="-1134.4" font-family="Times,serif" font-size="14.00">HS</text>
</g>
<!-- DZ&#45;&#45;HS -->
<g id="edge63" class="edge">
<title>DZ&#45;&#45;HS</title>
<path fill="none" stroke="black" d="M1286.74,-1135.99C1263.34,-1136.45 1229.81,-1137.11 1206.42,-1137.57"/>
</g>
<!-- VH -->
<g id="node18" class="node">
<title>VH</title>
<ellipse fill="none" stroke="black" cx="1000.42" cy="-932.72" rx="27" ry="18"/>
<text text-anchor="middle" x="1000.42" y="-929.02" font-family="Times,serif" font-size="14.00">VH</text>
</g>
<!-- WY -->
<g id="node19" class="node">
<title>WY</title>
<ellipse fill="none" stroke="black" cx="1074.51" cy="-1064.73" rx="27" ry="18"/>
<text text-anchor="middle" x="1074.51" y="-1061.03" font-family="Times,serif" font-size="14.00">WY</text>
</g>
<!-- VH&#45;&#45;WY -->
<g id="edge12" class="edge">
<title>VH&#45;&#45;WY</title>
<path fill="none" stroke="black" d="M1009.95,-949.71C1024.18,-975.06 1050.81,-1022.5 1065.01,-1047.81"/>
</g>
<!-- YQ -->
<g id="node20" class="node">
<title>YQ</title>
<ellipse fill="none" stroke="black" cx="945.03" cy="-809.29" rx="27" ry="18"/>
<text text-anchor="middle" x="945.03" y="-805.59" font-family="Times,serif" font-size="14.00">YQ</text>
</g>
<!-- VH&#45;&#45;YQ -->
<g id="edge13" class="edge">
<title>VH&#45;&#45;YQ</title>
<path fill="none" stroke="black" d="M992.6,-915.3C982.04,-891.78 963.34,-850.1 952.8,-826.62"/>
</g>
<!-- NU -->
<g id="node21" class="node">
<title>NU</title>
<ellipse fill="none" stroke="black" cx="1123.47" cy="-933.82" rx="27" ry="18"/>
<text text-anchor="middle" x="1123.47" y="-930.12" font-family="Times,serif" font-size="14.00">NU</text>
</g>
<!-- VH&#45;&#45;NU -->
<g id="edge14" class="edge">
<title>VH&#45;&#45;NU</title>
<path fill="none" stroke="black" d="M1027.42,-932.96C1047.8,-933.14 1075.64,-933.39 1096.11,-933.57"/>
</g>
<!-- WY&#45;&#45;HS -->
<g id="edge60" class="edge">
<title>WY&#45;&#45;HS</title>
<path fill="none" stroke="black" d="M1093.22,-1077.85C1112.15,-1091.12 1141.27,-1111.53 1160.27,-1124.85"/>
</g>
<!-- YQ&#45;&#45;AE -->
<g id="edge58" class="edge">
<title>YQ&#45;&#45;AE</title>
<path fill="none" stroke="black" d="M941.49,-791.4C935.67,-762.03 924.15,-703.87 918.29,-674.26"/>
</g>
<!-- NX -->
<g id="node22" class="node">
<title>NX</title>
<ellipse fill="none" stroke="black" cx="403.14" cy="-198.71" rx="27" ry="18"/>
<text text-anchor="middle" x="403.14" y="-195.01" font-family="Times,serif" font-size="14.00">NX</text>
</g>
<!-- NX&#45;&#45;XQ -->
<g id="edge15" class="edge">
<title>NX&#45;&#45;XQ</title>
<path fill="none" stroke="black" d="M378.09,-191.63C357.69,-185.86 329.04,-177.76 308.65,-172"/>
</g>
<!-- MN -->
<g id="node23" class="node">
<title>MN</title>
<ellipse fill="none" stroke="black" cx="541.51" cy="-218.66" rx="27.9" ry="18"/>
<text text-anchor="middle" x="541.51" y="-214.96" font-family="Times,serif" font-size="14.00">MN</text>
</g>
<!-- NX&#45;&#45;MN -->
<g id="edge16" class="edge">
<title>NX&#45;&#45;MN</title>
<path fill="none" stroke="black" d="M429.82,-202.55C454.01,-206.04 489.51,-211.16 513.96,-214.69"/>
</g>
<!-- TB -->
<g id="node32" class="node">
<title>TB</title>
<ellipse fill="none" stroke="black" cx="685.04" cy="-199.05" rx="27" ry="18"/>
<text text-anchor="middle" x="685.04" y="-195.35" font-family="Times,serif" font-size="14.00">TB</text>
</g>
<!-- MN&#45;&#45;TB -->
<g id="edge39" class="edge">
<title>MN&#45;&#45;TB</title>
<path fill="none" stroke="black" d="M569.18,-214.88C594.93,-211.36 633.03,-206.16 658.42,-202.69"/>
</g>
<!-- UX -->
<g id="node41" class="node">
<title>UX</title>
<ellipse fill="none" stroke="black" cx="522.54" cy="-357.56" rx="27" ry="18"/>
<text text-anchor="middle" x="522.54" y="-353.86" font-family="Times,serif" font-size="14.00">UX</text>
</g>
<!-- MN&#45;&#45;UX -->
<g id="edge38" class="edge">
<title>MN&#45;&#45;UX</title>
<path fill="none" stroke="black" d="M539.03,-236.82C535.39,-263.44 528.66,-312.78 525.02,-339.4"/>
</g>
<!-- XL -->
<g id="node24" class="node">
<title>XL</title>
<ellipse fill="none" stroke="black" cx="616.53" cy="-467.53" rx="27" ry="18"/>
<text text-anchor="middle" x="616.53" y="-463.83" font-family="Times,serif" font-size="14.00">XL</text>
</g>
<!-- AA -->
<g id="node25" class="node">
<title>AA</title>
<ellipse fill="none" stroke="black" cx="457.59" cy="-423.52" rx="27" ry="18"/>
<text text-anchor="middle" x="457.59" y="-419.82" font-family="Times,serif" font-size="14.00">AA</text>
</g>
<!-- XL&#45;&#45;AA -->
<g id="edge17" class="edge">
<title>XL&#45;&#45;AA</title>
<path fill="none" stroke="black" d="M591.34,-460.56C561.58,-452.32 512.37,-438.69 482.66,-430.46"/>
</g>
<!-- FA -->
<g id="node26" class="node">
<title>FA</title>
<ellipse fill="none" stroke="black" cx="764.21" cy="-463.29" rx="27" ry="18"/>
<text text-anchor="middle" x="764.21" y="-459.59" font-family="Times,serif" font-size="14.00">FA</text>
</g>
<!-- XL&#45;&#45;FA -->
<g id="edge18" class="edge">
<title>XL&#45;&#45;FA</title>
<path fill="none" stroke="black" d="M643.61,-466.75C670.18,-465.99 710.45,-464.83 737.04,-464.07"/>
</g>
<!-- QY -->
<g id="node27" class="node">
<title>QY</title>
<ellipse fill="none" stroke="black" cx="1193.19" cy="-846.01" rx="27" ry="18"/>
<text text-anchor="middle" x="1193.19" y="-842.31" font-family="Times,serif" font-size="14.00">QY</text>
</g>
<!-- QY&#45;&#45;DO -->
<g id="edge20" class="edge">
<title>QY&#45;&#45;DO</title>
<path fill="none" stroke="black" d="M1197.58,-827.99C1204.01,-801.58 1215.93,-752.62 1222.37,-726.2"/>
</g>
<!-- QY&#45;&#45;NU -->
<g id="edge19" class="edge">
<title>QY&#45;&#45;NU</title>
<path fill="none" stroke="black" d="M1180.4,-862.12C1167.83,-877.96 1148.73,-902.01 1136.18,-917.81"/>
</g>
<!-- NK -->
<g id="node28" class="node">
<title>NK</title>
<ellipse fill="none" stroke="black" cx="236.17" cy="-292.96" rx="27" ry="18"/>
<text text-anchor="middle" x="236.17" y="-289.26" font-family="Times,serif" font-size="14.00">NK</text>
</g>
<!-- NK&#45;&#45;XQ -->
<g id="edge23" class="edge">
<title>NK&#45;&#45;XQ</title>
<path fill="none" stroke="black" d="M242.67,-275.43C251.71,-251.05 267.98,-207.15 277.05,-182.66"/>
</g>
<!-- XW -->
<g id="node29" class="node">
<title>XW</title>
<ellipse fill="none" stroke="black" cx="304.23" cy="-398.57" rx="27" ry="18"/>
<text text-anchor="middle" x="304.23" y="-394.87" font-family="Times,serif" font-size="14.00">XW</text>
</g>
<!-- NK&#45;&#45;XW -->
<g id="edge22" class="edge">
<title>NK&#45;&#45;XW</title>
<path fill="none" stroke="black" d="M247.1,-309.93C259.88,-329.75 280.88,-362.34 293.54,-381.99"/>
</g>
<!-- XW&#45;&#45;AA -->
<g id="edge65" class="edge">
<title>XW&#45;&#45;AA</title>
<path fill="none" stroke="black" d="M330.59,-402.86C358.77,-407.44 403.17,-414.67 431.31,-419.25"/>
</g>
<!-- JU -->
<g id="node30" class="node">
<title>JU</title>
<ellipse fill="none" stroke="black" cx="825.6" cy="-238.8" rx="27" ry="18"/>
<text text-anchor="middle" x="825.6" y="-235.1" font-family="Times,serif" font-size="14.00">JU</text>
</g>
<!-- QH -->
<g id="node31" class="node">
<title>QH</title>
<ellipse fill="none" stroke="black" cx="887.15" cy="-366.23" rx="27" ry="18"/>
<text text-anchor="middle" x="887.15" y="-362.53" font-family="Times,serif" font-size="14.00">QH</text>
</g>
<!-- JU&#45;&#45;QH -->
<g id="edge24" class="edge">
<title>JU&#45;&#45;QH</title>
<path fill="none" stroke="black" d="M833.9,-255.98C845.65,-280.3 867,-324.51 878.79,-348.91"/>
</g>
<!-- JU&#45;&#45;TB -->
<g id="edge25" class="edge">
<title>JU&#45;&#45;TB</title>
<path fill="none" stroke="black" d="M800.47,-231.69C774.89,-224.46 735.46,-213.31 709.95,-206.1"/>
</g>
<!-- QH&#45;&#45;FA -->
<g id="edge56" class="edge">
<title>QH&#45;&#45;FA</title>
<path fill="none" stroke="black" d="M869.54,-380.14C846.16,-398.59 805.14,-430.97 781.79,-449.41"/>
</g>
<!-- DW -->
<g id="node55" class="node">
<title>DW</title>
<ellipse fill="none" stroke="black" cx="981.32" cy="-236.93" rx="27.1" ry="18"/>
<text text-anchor="middle" x="981.32" y="-233.23" font-family="Times,serif" font-size="14.00">DW</text>
</g>
<!-- QH&#45;&#45;DW -->
<g id="edge57" class="edge">
<title>QH&#45;&#45;DW</title>
<path fill="none" stroke="black" d="M899.08,-349.85C917.19,-324.98 951.43,-277.96 969.49,-253.17"/>
</g>
<!-- XZ -->
<g id="node33" class="node">
<title>XZ</title>
<ellipse fill="none" stroke="black" cx="527.88" cy="-303.06" rx="27" ry="18"/>
<text text-anchor="middle" x="527.88" y="-299.36" font-family="Times,serif" font-size="14.00">XZ</text>
</g>
<!-- XZ&#45;&#45;SH -->
<g id="edge27" class="edge">
<title>XZ&#45;&#45;SH</title>
<path fill="none" stroke="black" d="M539.72,-286.46C555.42,-264.44 582.99,-225.78 598.68,-203.77"/>
</g>
<!-- XZ&#45;&#45;AA -->
<g id="edge26" class="edge">
<title>XZ&#45;&#45;AA</title>
<path fill="none" stroke="black" d="M517.96,-320.07C504.56,-343.02 480.83,-383.69 467.46,-406.6"/>
</g>
<!-- LE -->
<g id="node36" class="node">
<title>LE</title>
<ellipse fill="none" stroke="black" cx="530.02" cy="-90.16" rx="27" ry="18"/>
<text text-anchor="middle" x="530.02" y="-86.46" font-family="Times,serif" font-size="14.00">LE</text>
</g>
<!-- LE&#45;&#45;MN -->
<g id="edge32" class="edge">
<title>LE&#45;&#45;MN</title>
<path fill="none" stroke="black" d="M531.64,-108.3C533.83,-132.79 537.71,-176.17 539.89,-200.61"/>
</g>
<!-- NS -->
<g id="node37" class="node">
<title>NS</title>
<ellipse fill="none" stroke="black" cx="616.4" cy="-50.27" rx="27" ry="18"/>
<text text-anchor="middle" x="616.4" y="-46.57" font-family="Times,serif" font-size="14.00">NS</text>
</g>
<!-- LE&#45;&#45;NS -->
<g id="edge33" class="edge">
<title>LE&#45;&#45;NS</title>
<path fill="none" stroke="black" d="M552.27,-79.89C565.06,-73.98 581.1,-66.57 593.93,-60.64"/>
</g>
<!-- NS&#45;&#45;SH -->
<g id="edge64" class="edge">
<title>NS&#45;&#45;SH</title>
<path fill="none" stroke="black" d="M615.62,-68.45C614.49,-94.64 612.42,-142.71 611.29,-168.94"/>
</g>
<!-- HO -->
<g id="node38" class="node">
<title>HO</title>
<ellipse fill="none" stroke="black" cx="997.36" cy="-484.06" rx="27" ry="18"/>
<text text-anchor="middle" x="997.36" y="-480.36" font-family="Times,serif" font-size="14.00">HO</text>
</g>
<!-- HO&#45;&#45;QH -->
<g id="edge35" class="edge">
<title>HO&#45;&#45;QH</title>
<path fill="none" stroke="black" d="M982.95,-468.65C961.83,-446.07 922.69,-404.22 901.56,-381.64"/>
</g>
<!-- GO -->
<g id="node39" class="node">
<title>GO</title>
<ellipse fill="none" stroke="black" cx="1103.97" cy="-616.07" rx="27" ry="18"/>
<text text-anchor="middle" x="1103.97" y="-612.37" font-family="Times,serif" font-size="14.00">GO</text>
</g>
<!-- HO&#45;&#45;GO -->
<g id="edge34" class="edge">
<title>HO&#45;&#45;GO</title>
<path fill="none" stroke="black" d="M1010.22,-499.98C1030.71,-525.35 1070.55,-574.68 1091.07,-600.09"/>
</g>
<!-- GO&#45;&#45;DO -->
<g id="edge61" class="edge">
<title>GO&#45;&#45;DO</title>
<path fill="none" stroke="black" d="M1122.09,-629.66C1145.3,-647.08 1185.31,-677.09 1208.56,-694.53"/>
</g>
<!-- PX -->
<g id="node40" class="node">
<title>PX</title>
<ellipse fill="none" stroke="black" cx="463.67" cy="-279.87" rx="27" ry="18"/>
<text text-anchor="middle" x="463.67" y="-276.17" font-family="Times,serif" font-size="14.00">PX</text>
</g>
<!-- PX&#45;&#45;VP -->
<g id="edge37" class="edge">
<title>PX&#45;&#45;VP</title>
<path fill="none" stroke="black" d="M489.45,-285.83C512.73,-291.22 546.8,-299.1 570.05,-304.49"/>
</g>
<!-- PX&#45;&#45;MN -->
<g id="edge36" class="edge">
<title>PX&#45;&#45;MN</title>
<path fill="none" stroke="black" d="M481.33,-265.98C493.98,-256.03 510.95,-242.69 523.65,-232.7"/>
</g>
<!-- UX&#45;&#45;AA -->
<g id="edge62" class="edge">
<title>UX&#45;&#45;AA</title>
<path fill="none" stroke="black" d="M507.48,-372.86C496.99,-383.52 483.05,-397.67 472.57,-408.31"/>
</g>
<!-- VB -->
<g id="node42" class="node">
<title>VB</title>
<ellipse fill="none" stroke="black" cx="377.21" cy="-456.97" rx="27" ry="18"/>
<text text-anchor="middle" x="377.21" y="-453.27" font-family="Times,serif" font-size="14.00">VB</text>
</g>
<!-- VB&#45;&#45;AA -->
<g id="edge41" class="edge">
<title>VB&#45;&#45;AA</title>
<path fill="none" stroke="black" d="M400.46,-447.29C411.22,-442.82 423.95,-437.52 434.67,-433.06"/>
</g>
<!-- VB&#45;&#45;XM -->
<g id="edge40" class="edge">
<title>VB&#45;&#45;XM</title>
<path fill="none" stroke="black" d="M392.75,-441.71C407.62,-427.11 429.9,-405.24 444.65,-390.76"/>
</g>
<!-- WT&#45;&#45;SH -->
<g id="edge47" class="edge">
<title>WT&#45;&#45;SH</title>
<path fill="none" stroke="black" d="M561.54,-175.34C569.13,-177.18 577.44,-179.19 585.01,-181.03"/>
</g>
<!-- BG&#45;&#45;GK -->
<g id="edge51" class="edge">
<title>BG&#45;&#45;GK</title>
<path fill="none" stroke="black" d="M449.94,-195.63C431.88,-179.26 402.76,-152.84 384.69,-136.45"/>
</g>
<!-- KI -->
<g id="node46" class="node">
<title>KI</title>
<ellipse fill="none" stroke="black" cx="1519.26" cy="-737.07" rx="27" ry="18"/>
<text text-anchor="middle" x="1519.26" y="-733.37" font-family="Times,serif" font-size="14.00">KI</text>
</g>
<!-- KI&#45;&#45;XU -->
<g id="edge45" class="edge">
<title>KI&#45;&#45;XU</title>
<path fill="none" stroke="black" d="M1492.44,-734.46C1469.04,-732.18 1435.28,-728.9 1411.9,-726.62"/>
</g>
<!-- MT -->
<g id="node48" class="node">
<title>MT</title>
<ellipse fill="none" stroke="black" cx="1670.03" cy="-752.56" rx="27" ry="18"/>
<text text-anchor="middle" x="1670.03" y="-748.86" font-family="Times,serif" font-size="14.00">MT</text>
</g>
<!-- KI&#45;&#45;MT -->
<g id="edge46" class="edge">
<title>KI&#45;&#45;MT</title>
<path fill="none" stroke="black" d="M1546.21,-739.84C1573.66,-742.66 1615.95,-747 1643.31,-749.81"/>
</g>
<!-- BO -->
<g id="node52" class="node">
<title>BO</title>
<ellipse fill="none" stroke="black" cx="1793.74" cy="-765.45" rx="27" ry="18"/>
<text text-anchor="middle" x="1793.74" y="-761.75" font-family="Times,serif" font-size="14.00">BO</text>
</g>
<!-- MT&#45;&#45;BO -->
<g id="edge53" class="edge">
<title>MT&#45;&#45;BO</title>
<path fill="none" stroke="black" d="M1696.88,-755.36C1717.63,-757.52 1746.21,-760.5 1766.95,-762.66"/>
</g>
<!-- VS -->
<g id="node49" class="node">
<title>VS</title>
<ellipse fill="none" stroke="black" cx="746.42" cy="-273.95" rx="27" ry="18"/>
<text text-anchor="middle" x="746.42" y="-270.25" font-family="Times,serif" font-size="14.00">VS</text>
</g>
<!-- VS&#45;&#45;SH -->
<g id="edge49" class="edge">
<title>VS&#45;&#45;SH</title>
<path fill="none" stroke="black" d="M726.65,-261.34C700.88,-244.89 656.07,-216.28 630.29,-199.83"/>
</g>
<!-- VS&#45;&#45;QH -->
<g id="edge48" class="edge">
<title>VS&#45;&#45;QH</title>
<path fill="none" stroke="black" d="M765.69,-286.59C792.49,-304.16 840.74,-335.8 867.66,-353.45"/>
</g>
<!-- HI -->
<g id="node50" class="node">
<title>HI</title>
<ellipse fill="none" stroke="black" cx="1492.95" cy="-1483.37" rx="27" ry="18"/>
<text text-anchor="middle" x="1492.95" y="-1479.67" font-family="Times,serif" font-size="14.00">HI</text>
</g>
<!-- HI&#45;&#45;TD -->
<g id="edge50" class="edge">
<title>HI&#45;&#45;TD</title>
<path fill="none" stroke="black" d="M1484.11,-1466.14C1474.53,-1447.45 1459.33,-1417.81 1449.73,-1399.09"/>
</g>
<!-- HN -->
<g id="node51" class="node">
<title>HN</title>
<ellipse fill="none" stroke="black" cx="1923.1" cy="-778.92" rx="27" ry="18"/>
<text text-anchor="middle" x="1923.1" y="-775.22" font-family="Times,serif" font-size="14.00">HN</text>
</g>
<!-- HN&#45;&#45;BO -->
<g id="edge52" class="edge">
<title>HN&#45;&#45;BO</title>
<path fill="none" stroke="black" d="M1896.3,-776.13C1874.09,-773.81 1842.7,-770.54 1820.51,-768.23"/>
</g>
<!-- OX -->
<g id="node53" class="node">
<title>OX</title>
<ellipse fill="none" stroke="black" cx="1322.68" cy="-982.79" rx="27" ry="18"/>
<text text-anchor="middle" x="1322.68" y="-979.09" font-family="Times,serif" font-size="14.00">OX</text>
</g>
<!-- OX&#45;&#45;DZ -->
<g id="edge54" class="edge">
<title>OX&#45;&#45;DZ</title>
<path fill="none" stroke="black" d="M1321.65,-1000.9C1319.99,-1030.28 1316.72,-1088 1315.05,-1117.37"/>
</g>
<!-- OX&#45;&#45;ZF -->
<g id="edge55" class="edge">
<title>OX&#45;&#45;ZF</title>
<path fill="none" stroke="black" d="M1318.99,-964.72C1313.83,-939.45 1304.52,-893.85 1299.39,-868.7"/>
</g>
<!-- ML -->
<g id="node56" class="node">
<title>ML</title>
<ellipse fill="none" stroke="black" cx="1057.59" cy="-130.29" rx="27" ry="18"/>
<text text-anchor="middle" x="1057.59" y="-126.59" font-family="Times,serif" font-size="14.00">ML</text>
</g>
<!-- DW&#45;&#45;ML -->
<g id="edge59" class="edge">
<title>DW&#45;&#45;ML</title>
<path fill="none" stroke="black" d="M993.24,-220.27C1007.57,-200.23 1031.47,-166.82 1045.76,-146.84"/>
</g>
<!-- VW -->
<g id="node58" class="node">
<title>VW</title>
<ellipse fill="none" stroke="black" cx="1135.86" cy="-18.35" rx="27" ry="18"/>
<text text-anchor="middle" x="1135.86" y="-14.65" font-family="Times,serif" font-size="14.00">VW</text>
</g>
<!-- VW&#45;&#45;ML -->
<g id="edge68" class="edge">
<title>VW&#45;&#45;ML</title>
<path fill="none" stroke="black" d="M1124.31,-34.86C1109.51,-56.03 1084.01,-92.51 1069.19,-113.71"/>
</g>
</g>
</svg>
