<?xml version="1.0" encoding="UTF-8" standalone="no"?>
<!DOCTYPE svg PUBLIC "-//W3C//DTD SVG 1.1//EN"
 "http://www.w3.org/Graphics/SVG/1.1/DTD/svg11.dtd">
<!-- Generated by graphviz version 2.43.0 (0)
 -->
<!-- Title: %3 Pages: 1 -->
<svg width="235pt" height="404pt"
 viewBox="0.00 0.00 235.08 404.00" xmlns="http://www.w3.org/2000/svg" xmlns:xlink="http://www.w3.org/1999/xlink">
<g id="graph0" class="graph" transform="scale(1 1) rotate(0) translate(4 400)">
<title>%3</title>
<polygon fill="white" stroke="transparent" points="-4,4 -4,-400 231.08,-400 231.08,4 -4,4"/>
<!-- AA -->
<g id="node1" class="node">
<title>AA</title>
<ellipse fill="none" stroke="black" cx="171" cy="-378" rx="27" ry="18"/>
<text text-anchor="middle" x="171" y="-374.3" font-family="Times,serif" font-size="14.00">AA</text>
</g>
<!-- DD -->
<g id="node2" class="node">
<title>DD</title>
<ellipse fill="none" stroke="black" cx="99" cy="-306" rx="27" ry="18"/>
<text text-anchor="middle" x="99" y="-302.3" font-family="Times,serif" font-size="14.00">DD</text>
</g>
<!-- AA&#45;&#45;DD -->
<g id="edge1" class="edge">
<title>AA&#45;&#45;DD</title>
<path fill="none" stroke="black" d="M152.81,-364.49C139.09,-352.85 121.05,-335.45 109.54,-322.85"/>
</g>
<!-- II -->
<g id="node3" class="node">
<title>II</title>
<ellipse fill="none" stroke="black" cx="171" cy="-306" rx="27" ry="18"/>
<text text-anchor="middle" x="171" y="-302.3" font-family="Times,serif" font-size="14.00">II</text>
</g>
<!-- AA&#45;&#45;II -->
<g id="edge2" class="edge">
<title>AA&#45;&#45;II</title>
<path fill="none" stroke="black" d="M165.16,-360.41C163.96,-349.41 163.95,-335.03 165.12,-323.96"/>
</g>
<!-- BB -->
<g id="node4" class="node">
<title>BB</title>
<ellipse fill="none" stroke="black" cx="167" cy="-162" rx="27" ry="18"/>
<text text-anchor="middle" x="167" y="-158.3" font-family="Times,serif" font-size="14.00">BB</text>
</g>
<!-- AA&#45;&#45;BB -->
<g id="edge3" class="edge">
<title>AA&#45;&#45;BB</title>
<path fill="none" stroke="black" d="M178.31,-360.24C185.1,-350.44 193.88,-337.4 198,-324 212.11,-278.12 213.25,-261.51 198,-216 193.39,-202.23 183.62,-189.17 175.97,-179.47"/>
</g>
<!-- DD&#45;&#45;AA -->
<g id="edge9" class="edge">
<title>DD&#45;&#45;AA</title>
<path fill="none" stroke="black" d="M117.24,-319.56C130.95,-331.19 148.93,-348.53 160.42,-361.12"/>
</g>
<!-- CC -->
<g id="node5" class="node">
<title>CC</title>
<ellipse fill="none" stroke="black" cx="99" cy="-234" rx="27" ry="18"/>
<text text-anchor="middle" x="99" y="-230.3" font-family="Times,serif" font-size="14.00">CC</text>
</g>
<!-- DD&#45;&#45;CC -->
<g id="edge8" class="edge">
<title>DD&#45;&#45;CC</title>
<path fill="none" stroke="black" d="M93.16,-288.41C91.96,-277.41 91.95,-263.03 93.12,-251.96"/>
</g>
<!-- EE -->
<g id="node6" class="node">
<title>EE</title>
<ellipse fill="none" stroke="black" cx="27" cy="-234" rx="27" ry="18"/>
<text text-anchor="middle" x="27" y="-230.3" font-family="Times,serif" font-size="14.00">EE</text>
</g>
<!-- DD&#45;&#45;EE -->
<g id="edge10" class="edge">
<title>DD&#45;&#45;EE</title>
<path fill="none" stroke="black" d="M80.81,-292.49C67.09,-280.85 49.05,-263.45 37.54,-250.85"/>
</g>
<!-- II&#45;&#45;AA -->
<g id="edge18" class="edge">
<title>II&#45;&#45;AA</title>
<path fill="none" stroke="black" d="M176.88,-323.96C178.05,-335.03 178.04,-349.41 176.84,-360.41"/>
</g>
<!-- JJ -->
<g id="node10" class="node">
<title>JJ</title>
<ellipse fill="none" stroke="black" cx="171" cy="-234" rx="27" ry="18"/>
<text text-anchor="middle" x="171" y="-230.3" font-family="Times,serif" font-size="14.00">JJ</text>
</g>
<!-- II&#45;&#45;JJ -->
<g id="edge19" class="edge">
<title>II&#45;&#45;JJ</title>
<path fill="none" stroke="black" d="M165.16,-288.41C163.96,-277.41 163.95,-263.03 165.12,-251.96"/>
</g>
<!-- BB&#45;&#45;AA -->
<g id="edge5" class="edge">
<title>BB&#45;&#45;AA</title>
<path fill="none" stroke="black" d="M186.72,-174.7C198.06,-184.64 210.58,-199.82 216,-216 231.25,-261.51 230.11,-278.12 216,-324 211.23,-339.52 200.19,-354.58 189.91,-364.65"/>
</g>
<!-- BB&#45;&#45;CC -->
<g id="edge4" class="edge">
<title>BB&#45;&#45;CC</title>
<path fill="none" stroke="black" d="M157.27,-178.95C146.58,-191.43 129.81,-208.56 116.84,-220.16"/>
</g>
<!-- CC&#45;&#45;DD -->
<g id="edge6" class="edge">
<title>CC&#45;&#45;DD</title>
<path fill="none" stroke="black" d="M104.88,-251.96C106.05,-263.03 106.04,-277.41 104.84,-288.41"/>
</g>
<!-- CC&#45;&#45;BB -->
<g id="edge7" class="edge">
<title>CC&#45;&#45;BB</title>
<path fill="none" stroke="black" d="M108.67,-217.12C119.37,-204.61 136.22,-187.41 149.22,-175.78"/>
</g>
<!-- EE&#45;&#45;DD -->
<g id="edge12" class="edge">
<title>EE&#45;&#45;DD</title>
<path fill="none" stroke="black" d="M45.24,-247.56C58.95,-259.19 76.93,-276.53 88.42,-289.12"/>
</g>
<!-- FF -->
<g id="node7" class="node">
<title>FF</title>
<ellipse fill="none" stroke="black" cx="27" cy="-162" rx="27" ry="18"/>
<text text-anchor="middle" x="27" y="-158.3" font-family="Times,serif" font-size="14.00">FF</text>
</g>
<!-- EE&#45;&#45;FF -->
<g id="edge11" class="edge">
<title>EE&#45;&#45;FF</title>
<path fill="none" stroke="black" d="M21.16,-216.41C19.96,-205.41 19.95,-191.03 21.12,-179.96"/>
</g>
<!-- FF&#45;&#45;EE -->
<g id="edge13" class="edge">
<title>FF&#45;&#45;EE</title>
<path fill="none" stroke="black" d="M32.88,-179.96C34.05,-191.03 34.04,-205.41 32.84,-216.41"/>
</g>
<!-- GG -->
<g id="node8" class="node">
<title>GG</title>
<ellipse fill="none" stroke="black" cx="27" cy="-90" rx="27" ry="18"/>
<text text-anchor="middle" x="27" y="-86.3" font-family="Times,serif" font-size="14.00">GG</text>
</g>
<!-- FF&#45;&#45;GG -->
<g id="edge14" class="edge">
<title>FF&#45;&#45;GG</title>
<path fill="none" stroke="black" d="M21.16,-144.41C19.96,-133.41 19.95,-119.03 21.12,-107.96"/>
</g>
<!-- GG&#45;&#45;FF -->
<g id="edge15" class="edge">
<title>GG&#45;&#45;FF</title>
<path fill="none" stroke="black" d="M32.88,-107.96C34.05,-119.03 34.04,-133.41 32.84,-144.41"/>
</g>
<!-- HH -->
<g id="node9" class="node">
<title>HH</title>
<ellipse fill="none" stroke="black" cx="27" cy="-18" rx="27" ry="18"/>
<text text-anchor="middle" x="27" y="-14.3" font-family="Times,serif" font-size="14.00">HH</text>
</g>
<!-- GG&#45;&#45;HH -->
<g id="edge16" class="edge">
<title>GG&#45;&#45;HH</title>
<path fill="none" stroke="black" d="M21.16,-72.41C19.96,-61.41 19.95,-47.03 21.12,-35.96"/>
</g>
<!-- HH&#45;&#45;GG -->
<g id="edge17" class="edge">
<title>HH&#45;&#45;GG</title>
<path fill="none" stroke="black" d="M32.88,-35.96C34.05,-47.03 34.04,-61.41 32.84,-72.41"/>
</g>
<!-- JJ&#45;&#45;II -->
<g id="edge20" class="edge">
<title>JJ&#45;&#45;II</title>
<path fill="none" stroke="black" d="M176.88,-251.96C178.05,-263.03 178.04,-277.41 176.84,-288.41"/>
</g>
</g>
</svg>
